<svg xmlns="http://www.w3.org/2000/svg" xmlns:xlink="http://www.w3.org/1999/xlink" width="500" zoomAndPan="magnify" viewBox="0 0 375 374.999991" height="500" preserveAspectRatio="xMidYMid meet" version="1.0"><defs><g/><clipPath id="73392ae123"><path d="M 37.714844 0 L 337.285156 0 C 358.113281 0 375 16.886719 375 37.714844 L 375 337.285156 C 375 358.113281 358.113281 375 337.285156 375 L 37.714844 375 C 16.886719 375 0 358.113281 0 337.285156 L 0 37.714844 C 0 16.886719 16.886719 0 37.714844 0 Z M 37.714844 0 " clip-rule="nonzero"/></clipPath></defs><g clip-path="url(#73392ae123)"><rect x="-37.5" width="450" fill="#8c52ff" y="-37.499999" height="449.999989" fill-opacity="1"/><path stroke-linecap="butt" transform="matrix(0.75, 0, 0, 0.75, 0.0000045, 0)" fill="none" stroke-linejoin="miter" d="M 50.286452 0 L 449.713536 0 C 477.48437 0 499.999995 22.515625 499.999995 50.286458 L 499.999995 449.713542 C 499.999995 477.484376 477.48437 500.000001 449.713536 500.000001 L 50.286452 500.000001 C 22.515619 500.000001 -0.000006 477.484376 -0.000006 449.713542 L -0.000006 50.286458 C -0.000006 22.515625 22.515619 0 50.286452 0 Z M 50.286452 0 " stroke="#8c52ff" stroke-width="6" stroke-opacity="1" stroke-miterlimit="4"/></g><g fill="#ffffff" fill-opacity="1"><g transform="translate(76.315883, 279.615845)"><g><path d="M 61.894531 -167.089844 L 14.007812 -167.089844 L 14.007812 -161.742188 L 31.585938 -161.742188 L 31.585938 -5.347656 L 14.007812 -5.347656 L 14.007812 0 L 80.996094 0 L 80.996094 -5.347656 L 61.894531 -5.347656 L 61.894531 -139.835938 C 69.789062 -154.101562 83.035156 -163.777344 93.480469 -163.777344 C 96.027344 -163.777344 97.808594 -163.269531 98.316406 -163.015625 C 90.167969 -161.996094 84.054688 -154.609375 84.054688 -145.949219 C 84.054688 -135.761719 91.695312 -128.121094 101.882812 -128.121094 C 112.328125 -128.121094 119.96875 -136.269531 119.96875 -146.96875 C 119.96875 -159.703125 109.527344 -169.382812 95.261719 -169.382812 C 82.015625 -169.382812 69.027344 -160.210938 61.894531 -148.75 Z M 61.894531 -167.089844 "/></g></g></g><g fill="#ffffff" fill-opacity="1"><g transform="translate(196.282067, 279.615845)"><g><path d="M 89.148438 -21.394531 C 88.382812 -12.480469 82.527344 -6.878906 74.886719 -6.878906 C 68.007812 -6.878906 60.621094 -11.714844 60.621094 -23.941406 L 60.621094 -161.742188 L 89.402344 -161.742188 L 89.402344 -167.089844 L 60.621094 -167.089844 L 60.621094 -234.332031 L 30.308594 -234.332031 L 30.308594 -167.089844 L 12.734375 -167.089844 L 12.734375 -161.742188 L 30.308594 -161.742188 L 30.308594 -41.773438 C 30.308594 -30.820312 31.328125 -21.648438 34.640625 -14.773438 C 40.5 -2.800781 50.941406 2.546875 66.988281 2.546875 C 83.035156 2.546875 93.988281 -7.894531 94.753906 -21.394531 Z M 89.148438 -21.394531 "/></g></g></g></svg>